# ProBuilder 5.0.3
# https://unity3d.com/unity/features/worldbuilding/probuilder
# 13.06.2021 11:40:16

mtllib ./Circle.mtl
o Circle

g Circle
v -0.499999 0 0
v -0.25 0 0
v -0.2487965 0 0.02450418
v -0.4975914 0 0.04900857
v -0.2451963 0 0.04877257
v -0.4903917 0 0.09754516
v -0.2392349 0 0.07257128
v -0.4784692 0 0.1451423
v -0.2309694 0 0.09567094
v -0.4619388 0 0.1913417
v -0.22048 0 0.1178491
v -0.4409597 0 0.2356984
v -0.2078676 0 0.1388927
v -0.4157338 0 0.2777851
v -0.1932526 0 0.1585984
v -0.3865043 0 0.3171966
v -0.1767769 0 0.1767766
v -0.3535524 0 0.3535534
v -0.1585979 0 0.1932526
v -0.3171957 0 0.3865052
v -0.1388922 0 0.2078674
v -0.2777842 0 0.4157348
v -0.1178493 0 0.2204802
v -0.2356974 0 0.4409606
v -0.0956707 0 0.2309699
v -0.1913408 0 0.4619398
v -0.0725708 0 0.2392352
v -0.1451414 0 0.4784702
v -0.04877281 0 0.2451963
v -0.09754422 0 0.4903926
v -0.02450466 0 0.2487962
v -0.04900761 0 0.4975924
v 0 0 0.25
v 9.7553E-07 0 0.5
v 0.02450466 0 0.2487962
v 0.04900951 0 0.4975924
v 0.04877281 0 0.2451963
v 0.09754612 0 0.4903926
v 0.0725708 0 0.2392352
v 0.1451433 0 0.4784701
v 0.0956707 0 0.2309699
v 0.1913427 0 0.4619398
v 0.1178493 0 0.2204804
v 0.2356993 0 0.4409606
v 0.1388922 0 0.2078674
v 0.277786 0 0.4157348
v 0.1585979 0 0.1932526
v 0.3171976 0 0.3865052
v 0.1767769 0 0.1767766
v 0.3535543 0 0.3535534
v 0.1932526 0 0.1585984
v 0.3865062 0 0.3171966
v 0.2078676 0 0.1388927
v 0.4157358 0 0.2777851
v 0.22048 0 0.1178491
v 0.4409616 0 0.2356984
v 0.2309694 0 0.09567094
v 0.4619407 0 0.1913417
v 0.2392349 0 0.07257128
v 0.4784711 0 0.1451424
v 0.2451963 0 0.04877257
v 0.4903936 0 0.09754515
v 0.2487965 0 0.02450418
v 0.4975933 0 0.04900855
v 0.25 0 0
v 0.500001 0 -4.371139E-08
v 0.2487965 0 -0.02450418
v 0.4975933 0 -0.04900851
v 0.2451963 0 -0.04877257
v 0.4903936 0 -0.09754512
v 0.2392349 0 -0.07257128
v 0.4784711 0 -0.1451423
v 0.2309694 0 -0.09567094
v 0.4619407 0 -0.1913417
v 0.22048 0 -0.1178492
v 0.4409616 0 -0.2356984
v 0.2078676 0 -0.1388925
v 0.4157357 0 -0.2777852
v 0.1932526 0 -0.1585983
v 0.3865062 0 -0.3171966
v 0.1767769 0 -0.1767766
v 0.3535544 0 -0.3535534
v 0.1585979 0 -0.1932526
v 0.3171976 0 -0.3865052
v 0.1388922 0 -0.2078674
v 0.2777862 0 -0.4157347
v 0.1178493 0 -0.2204803
v 0.2356993 0 -0.4409606
v 0.0956707 0 -0.2309699
v 0.1913427 0 -0.4619398
v 0.0725708 0 -0.239235
v 0.1451432 0 -0.4784702
v 0.04877281 0 -0.2451963
v 0.09754615 0 -0.4903926
v 0.02450466 0 -0.2487962
v 0.04900965 0 -0.4975924
v 0 0 -0.25
v 9.477119E-07 0 -0.5
v -0.04900752 0 -0.4975924
v -0.02450466 0 -0.2487962
v -0.04877281 0 -0.2451963
v -0.09754425 0 -0.4903926
v -0.1451413 0 -0.4784702
v -0.0725708 0 -0.239235
v -0.1913408 0 -0.4619397
v -0.0956707 0 -0.2309699
v -0.1178493 0 -0.2204803
v -0.2356974 0 -0.4409606
v -0.2777841 0 -0.4157349
v -0.1388922 0 -0.2078674
v -0.1585979 0 -0.1932526
v -0.3171957 0 -0.3865052
v -0.3535524 0 -0.3535534
v -0.1767769 0 -0.1767768
v -0.1932526 0 -0.1585983
v -0.3865043 0 -0.3171966
v -0.2078676 0 -0.1388925
v -0.4157338 0 -0.2777852
v -0.4409596 0 -0.2356985
v -0.22048 0 -0.1178492
v -0.2309694 0 -0.09567094
v -0.4619388 0 -0.1913417
v -0.4784692 0 -0.1451424
v -0.2392349 0 -0.07257128
v -0.2451963 0 -0.04877257
v -0.4903917 0 -0.09754512
v -0.4975914 0 -0.04900862
v -0.2487965 0 -0.02450442

vt 0.50005 1
vt 0.500025 0
vt 0.4999975 2.488494E-05
vt 0.4999951 1.00005
vt 0.4999502 0.9999951
vt 0.5 0.99995

vn 0 1 0

usemtl Selector
f 4/1/1 3/2/1 2/2/1 1/1/1
f 6/1/1 5/2/1 3/2/1 4/1/1
f 6/1/1 8/1/1 7/2/1 5/2/1
f 10/1/1 9/2/1 7/2/1 8/1/1
f 10/1/1 12/1/1 11/2/1 9/2/1
f 14/1/1 13/2/1 11/2/1 12/1/1
f 14/1/1 16/1/1 15/2/1 13/2/1
f 18/1/1 17/2/1 15/2/1 16/1/1
f 20/1/1 19/2/1 17/2/1 18/1/1
f 20/1/1 22/1/1 21/2/1 19/2/1
f 24/1/1 23/2/1 21/2/1 22/1/1
f 26/1/1 25/2/1 23/2/1 24/1/1
f 26/1/1 28/1/1 27/2/1 25/2/1
f 30/1/1 29/2/1 27/2/1 28/1/1
f 30/1/1 32/1/1 31/2/1 29/2/1
f 34/1/1 33/2/1 31/2/1 32/1/1
f 34/1/1 36/4/1 35/3/1 33/2/1
f 36/4/1 38/4/1 37/3/1 35/3/1
f 40/4/1 39/3/1 37/3/1 38/4/1
f 42/4/1 41/3/1 39/3/1 40/4/1
f 42/4/1 44/4/1 43/3/1 41/3/1
f 46/4/1 45/3/1 43/3/1 44/4/1
f 48/4/1 47/3/1 45/3/1 46/4/1
f 47/3/1 48/4/1 50/4/1 49/3/1
f 50/4/1 52/4/1 51/3/1 49/3/1
f 51/3/1 52/4/1 54/4/1 53/3/1
f 54/4/1 56/4/1 55/3/1 53/3/1
f 55/3/1 56/4/1 58/4/1 57/3/1
f 58/4/1 60/4/1 59/3/1 57/3/1
f 59/3/1 60/4/1 62/4/1 61/3/1
f 61/3/1 62/4/1 64/4/1 63/3/1
f 64/4/1 66/4/1 65/3/1 63/3/1
f 66/4/1 68/5/1 67/3/1 65/3/1
f 67/3/1 68/5/1 70/5/1 69/3/1
f 70/5/1 72/5/1 71/3/1 69/3/1
f 72/5/1 74/5/1 73/3/1 71/3/1
f 73/3/1 74/5/1 76/5/1 75/3/1
f 76/5/1 78/5/1 77/3/1 75/3/1
f 77/3/1 78/5/1 80/5/1 79/3/1
f 80/5/1 82/5/1 81/3/1 79/3/1
f 81/3/1 82/5/1 84/5/1 83/3/1
f 84/5/1 86/5/1 85/3/1 83/3/1
f 85/3/1 86/5/1 88/5/1 87/3/1
f 87/3/1 88/5/1 90/5/1 89/3/1
f 90/5/1 92/5/1 91/3/1 89/3/1
f 91/3/1 92/5/1 94/5/1 93/3/1
f 93/3/1 94/5/1 96/5/1 95/3/1
f 96/5/1 98/6/1 97/2/1 95/3/1
f 100/2/1 97/2/1 98/6/1 99/6/1
f 100/2/1 99/6/1 102/6/1 101/2/1
f 104/2/1 101/2/1 102/6/1 103/6/1
f 106/2/1 104/2/1 103/6/1 105/6/1
f 106/2/1 105/6/1 108/6/1 107/2/1
f 110/2/1 107/2/1 108/6/1 109/6/1
f 110/2/1 109/6/1 112/6/1 111/2/1
f 114/2/1 111/2/1 112/6/1 113/6/1
f 114/2/1 113/6/1 116/6/1 115/2/1
f 115/2/1 116/6/1 118/6/1 117/2/1
f 120/2/1 117/2/1 118/6/1 119/6/1
f 120/2/1 119/6/1 122/6/1 121/2/1
f 124/2/1 121/2/1 122/6/1 123/6/1
f 124/2/1 123/6/1 126/6/1 125/2/1
f 128/2/1 125/2/1 126/6/1 127/6/1
f 1/1/1 2/2/1 128/2/1 127/6/1

